<svg width="49" height="59" viewBox="0 0 49 59" fill="none" xmlns="http://www.w3.org/2000/svg">
<path fill-rule="evenodd" clip-rule="evenodd" d="M23.4329 0.204399C23.1808 0.31855 17.8391 5.55924 11.5627 11.8504C1.46148 21.9748 0.138742 23.3545 0.0464438 23.8617C-0.174064 25.075 0.406316 26.2335 1.45415 26.6713C1.86781 26.8441 5.79309 26.8797 24.4365 26.8797C49.3652 26.8797 47.5363 26.9554 48.3486 25.8904C48.7987 25.3004 48.9478 24.6418 48.8069 23.867C48.7134 23.3528 47.437 22.0209 37.2898 11.8501C30.6594 5.20426 25.672 0.322217 25.3862 0.198134C24.7722 -0.0682178 24.0297 -0.0659256 23.4329 0.204399ZM1.42039 31.3047C0.399301 31.7494 -0.170534 32.9115 0.0460004 34.1077C0.137993 34.6157 1.46318 35.9942 11.715 46.247C21.9787 56.5115 23.3446 57.8246 23.8532 57.9159C25.299 58.1752 24.5714 58.8141 37.1375 46.247C47.3893 35.9942 48.7145 34.6157 48.8065 34.1077C49.0259 32.8956 48.5073 31.8429 47.4413 31.3371C46.9679 31.1125 44.8474 31.0903 24.4032 31.0957C6.02767 31.1005 1.80074 31.1391 1.42039 31.3047Z" fill="#FBF5E7"/>
</svg>
